<mxfile host="app.diagrams.net" modified="2023-12-04T22:26:41.118Z" agent="Mozilla/5.0 (Windows NT 10.0; Win64; x64) AppleWebKit/537.36 (KHTML, like Gecko) Chrome/119.0.0.0 Safari/537.36" etag="lfsPpJ5nQECSMqzwYjnP" version="22.1.5" type="device">
  <diagram name="Página-1" id="k29LO2Y5olFIAJzZQsGU">
    <mxGraphModel dx="1050" dy="1691" grid="1" gridSize="10" guides="1" tooltips="1" connect="1" arrows="1" fold="1" page="1" pageScale="1" pageWidth="827" pageHeight="1169" math="0" shadow="0">
      <root>
        <mxCell id="0" />
        <mxCell id="1" parent="0" />
        <mxCell id="_OX-JBq8yyOv4rNZ1e_I-90" value="idUtilizador" style="text;html=1;align=center;verticalAlign=middle;resizable=0;points=[];autosize=1;strokeColor=none;fillColor=none;fontSize=12;" parent="1" vertex="1">
          <mxGeometry x="324" y="-759.5" width="80" height="30" as="geometry" />
        </mxCell>
        <mxCell id="_OX-JBq8yyOv4rNZ1e_I-91" value="nome" style="text;html=1;align=center;verticalAlign=middle;resizable=0;points=[];autosize=1;strokeColor=none;fillColor=none;fontSize=12;" parent="1" vertex="1">
          <mxGeometry x="339" y="-744" width="50" height="30" as="geometry" />
        </mxCell>
        <mxCell id="m8FWC069CCOMlwwMVzGk-7" value="desafio" style="rounded=1;arcSize=10;whiteSpace=wrap;html=1;align=center;" parent="1" vertex="1">
          <mxGeometry x="145" y="-584" width="100" height="40" as="geometry" />
        </mxCell>
        <mxCell id="m8FWC069CCOMlwwMVzGk-30" value="utilizador" style="rounded=1;arcSize=10;whiteSpace=wrap;html=1;align=center;" parent="1" vertex="1">
          <mxGeometry x="314" y="-704" width="100" height="40" as="geometry" />
        </mxCell>
        <mxCell id="m8FWC069CCOMlwwMVzGk-33" value="registo" style="rounded=1;arcSize=10;whiteSpace=wrap;html=1;align=center;" parent="1" vertex="1">
          <mxGeometry x="470" y="-584" width="100" height="40" as="geometry" />
        </mxCell>
        <mxCell id="m8FWC069CCOMlwwMVzGk-37" value="cria" style="rhombus;whiteSpace=wrap;html=1;" parent="1" vertex="1">
          <mxGeometry x="140" y="-724" width="60" height="60" as="geometry" />
        </mxCell>
        <mxCell id="m8FWC069CCOMlwwMVzGk-42" value="validar" style="rhombus;whiteSpace=wrap;html=1;" parent="1" vertex="1">
          <mxGeometry x="490" y="-714" width="60" height="60" as="geometry" />
        </mxCell>
        <mxCell id="A9Ve7NAt99WnuOBKvE6o-100" value="" style="endArrow=none;html=1;rounded=0;exitX=0;exitY=0.5;exitDx=0;exitDy=0;entryX=1;entryY=0.5;entryDx=0;entryDy=0;" parent="1" source="m8FWC069CCOMlwwMVzGk-42" target="m8FWC069CCOMlwwMVzGk-30" edge="1">
          <mxGeometry width="50" height="50" relative="1" as="geometry">
            <mxPoint x="406" y="-960" as="sourcePoint" />
            <mxPoint x="420" y="-679" as="targetPoint" />
          </mxGeometry>
        </mxCell>
        <mxCell id="A9Ve7NAt99WnuOBKvE6o-101" value="" style="endArrow=none;html=1;rounded=0;entryX=0.5;entryY=1;entryDx=0;entryDy=0;" parent="1" source="m8FWC069CCOMlwwMVzGk-33" target="m8FWC069CCOMlwwMVzGk-42" edge="1">
          <mxGeometry width="50" height="50" relative="1" as="geometry">
            <mxPoint x="590" y="-690" as="sourcePoint" />
            <mxPoint x="495" y="-790" as="targetPoint" />
          </mxGeometry>
        </mxCell>
        <mxCell id="A9Ve7NAt99WnuOBKvE6o-103" value="" style="endArrow=none;html=1;rounded=0;exitX=0;exitY=0.25;exitDx=0;exitDy=0;entryX=1;entryY=0.5;entryDx=0;entryDy=0;" parent="1" source="m8FWC069CCOMlwwMVzGk-30" target="m8FWC069CCOMlwwMVzGk-37" edge="1">
          <mxGeometry width="50" height="50" relative="1" as="geometry">
            <mxPoint x="280" y="-677" as="sourcePoint" />
            <mxPoint x="240" y="-682" as="targetPoint" />
          </mxGeometry>
        </mxCell>
        <mxCell id="A9Ve7NAt99WnuOBKvE6o-135" value="N&lt;br&gt;" style="text;html=1;align=center;verticalAlign=middle;resizable=0;points=[];autosize=1;strokeColor=none;fillColor=none;" parent="1" vertex="1">
          <mxGeometry x="145" y="-614" width="30" height="30" as="geometry" />
        </mxCell>
        <mxCell id="A9Ve7NAt99WnuOBKvE6o-160" value="&lt;font style=&quot;vertical-align: inherit;&quot;&gt;&lt;font style=&quot;vertical-align: inherit;&quot;&gt;1&lt;/font&gt;&lt;/font&gt;" style="text;html=1;align=center;verticalAlign=middle;resizable=0;points=[];autosize=1;strokeColor=none;fillColor=none;" parent="1" vertex="1">
          <mxGeometry x="284" y="-724" width="30" height="30" as="geometry" />
        </mxCell>
        <mxCell id="LG2tEvLyeP2BqsjF69uh-1" value="email" style="text;html=1;align=center;verticalAlign=middle;resizable=0;points=[];autosize=1;strokeColor=none;fillColor=none;fontSize=12;" parent="1" vertex="1">
          <mxGeometry x="339" y="-729.5" width="50" height="30" as="geometry" />
        </mxCell>
        <mxCell id="LG2tEvLyeP2BqsjF69uh-3" value="idDesafio" style="text;html=1;align=center;verticalAlign=middle;resizable=0;points=[];autosize=1;strokeColor=none;fillColor=none;fontSize=12;" parent="1" vertex="1">
          <mxGeometry x="160" y="-544" width="70" height="30" as="geometry" />
        </mxCell>
        <mxCell id="LG2tEvLyeP2BqsjF69uh-5" value="descriçao" style="text;html=1;align=center;verticalAlign=middle;resizable=0;points=[];autosize=1;strokeColor=none;fillColor=none;fontSize=12;" parent="1" vertex="1">
          <mxGeometry x="160" y="-514" width="70" height="30" as="geometry" />
        </mxCell>
        <mxCell id="LG2tEvLyeP2BqsjF69uh-6" value="país" style="text;html=1;align=center;verticalAlign=middle;resizable=0;points=[];autosize=1;strokeColor=none;fillColor=none;fontSize=12;" parent="1" vertex="1">
          <mxGeometry x="170" y="-484" width="50" height="30" as="geometry" />
        </mxCell>
        <mxCell id="LG2tEvLyeP2BqsjF69uh-7" value="região" style="text;html=1;align=center;verticalAlign=middle;resizable=0;points=[];autosize=1;strokeColor=none;fillColor=none;fontSize=12;" parent="1" vertex="1">
          <mxGeometry x="165" y="-499.5" width="60" height="30" as="geometry" />
        </mxCell>
        <mxCell id="LG2tEvLyeP2BqsjF69uh-9" value="localidade" style="text;html=1;align=center;verticalAlign=middle;resizable=0;points=[];autosize=1;strokeColor=none;fillColor=none;fontSize=12;" parent="1" vertex="1">
          <mxGeometry x="155" y="-529.5" width="80" height="30" as="geometry" />
        </mxCell>
        <mxCell id="LG2tEvLyeP2BqsjF69uh-10" value="idRegisto" style="text;html=1;align=center;verticalAlign=middle;resizable=0;points=[];autosize=1;strokeColor=none;fillColor=none;fontSize=12;" parent="1" vertex="1">
          <mxGeometry x="485" y="-544" width="70" height="30" as="geometry" />
        </mxCell>
        <mxCell id="LG2tEvLyeP2BqsjF69uh-13" value="&lt;font style=&quot;vertical-align: inherit;&quot;&gt;&lt;font style=&quot;vertical-align: inherit;&quot;&gt;data_validação&lt;/font&gt;&lt;/font&gt;" style="text;html=1;align=center;verticalAlign=middle;resizable=0;points=[];autosize=1;strokeColor=none;fillColor=none;fontSize=12;" parent="1" vertex="1">
          <mxGeometry x="480" y="-514" width="100" height="30" as="geometry" />
        </mxCell>
        <mxCell id="LG2tEvLyeP2BqsjF69uh-14" value="completado_sucesso" style="text;html=1;align=center;verticalAlign=middle;resizable=0;points=[];autosize=1;strokeColor=none;fillColor=none;fontSize=12;" parent="1" vertex="1">
          <mxGeometry x="460" y="-529.5" width="140" height="30" as="geometry" />
        </mxCell>
        <mxCell id="LG2tEvLyeP2BqsjF69uh-16" value="complet." style="rhombus;whiteSpace=wrap;html=1;" parent="1" vertex="1">
          <mxGeometry x="334" y="-594" width="60" height="60" as="geometry" />
        </mxCell>
        <mxCell id="LG2tEvLyeP2BqsjF69uh-17" value="" style="endArrow=none;html=1;rounded=0;exitX=0;exitY=0.5;exitDx=0;exitDy=0;entryX=1;entryY=0.5;entryDx=0;entryDy=0;" parent="1" source="m8FWC069CCOMlwwMVzGk-33" target="LG2tEvLyeP2BqsjF69uh-16" edge="1">
          <mxGeometry width="50" height="50" relative="1" as="geometry">
            <mxPoint x="500" y="-674" as="sourcePoint" />
            <mxPoint x="424" y="-674" as="targetPoint" />
          </mxGeometry>
        </mxCell>
        <mxCell id="LG2tEvLyeP2BqsjF69uh-18" value="" style="endArrow=none;html=1;rounded=0;exitX=0;exitY=0.5;exitDx=0;exitDy=0;entryX=1;entryY=0.5;entryDx=0;entryDy=0;" parent="1" source="LG2tEvLyeP2BqsjF69uh-16" target="m8FWC069CCOMlwwMVzGk-7" edge="1">
          <mxGeometry width="50" height="50" relative="1" as="geometry">
            <mxPoint x="321" y="-564.36" as="sourcePoint" />
            <mxPoint x="280" y="-550" as="targetPoint" />
          </mxGeometry>
        </mxCell>
        <mxCell id="LG2tEvLyeP2BqsjF69uh-20" value="1" style="edgeLabel;html=1;align=center;verticalAlign=middle;resizable=0;points=[];" parent="1" vertex="1" connectable="0">
          <mxGeometry x="449.99984908954764" y="-694.4980867978635" as="geometry">
            <mxPoint x="-21" y="-3" as="offset" />
          </mxGeometry>
        </mxCell>
        <mxCell id="LG2tEvLyeP2BqsjF69uh-21" value="N&lt;br&gt;" style="text;html=1;align=center;verticalAlign=middle;resizable=0;points=[];autosize=1;strokeColor=none;fillColor=none;" parent="1" vertex="1">
          <mxGeometry x="440" y="-564.9999999999999" width="30" height="30" as="geometry" />
        </mxCell>
        <mxCell id="LG2tEvLyeP2BqsjF69uh-22" value="1" style="edgeLabel;html=1;align=center;verticalAlign=middle;resizable=0;points=[];" parent="1" vertex="1" connectable="0">
          <mxGeometry x="283.99984908954764" y="-549.9980867978635" as="geometry">
            <mxPoint x="-21" y="-3" as="offset" />
          </mxGeometry>
        </mxCell>
        <mxCell id="ewBVVVlj6XX4nbLFyOXV-1" value="" style="endArrow=none;html=1;rounded=0;exitX=0.5;exitY=1;exitDx=0;exitDy=0;entryX=1;entryY=0.5;entryDx=0;entryDy=0;" parent="1" source="m8FWC069CCOMlwwMVzGk-30" target="ewBVVVlj6XX4nbLFyOXV-2" edge="1">
          <mxGeometry width="50" height="50" relative="1" as="geometry">
            <mxPoint x="310" y="-670" as="sourcePoint" />
            <mxPoint x="280" y="-674" as="targetPoint" />
            <Array as="points">
              <mxPoint x="364" y="-654" />
            </Array>
          </mxGeometry>
        </mxCell>
        <mxCell id="ewBVVVlj6XX4nbLFyOXV-2" value="participa" style="rhombus;whiteSpace=wrap;html=1;" parent="1" vertex="1">
          <mxGeometry x="200" y="-684" width="60" height="60" as="geometry" />
        </mxCell>
        <mxCell id="ewBVVVlj6XX4nbLFyOXV-3" value="" style="endArrow=none;html=1;rounded=0;exitX=0.5;exitY=1;exitDx=0;exitDy=0;entryX=0.25;entryY=0;entryDx=0;entryDy=0;" parent="1" source="m8FWC069CCOMlwwMVzGk-37" target="m8FWC069CCOMlwwMVzGk-7" edge="1">
          <mxGeometry width="50" height="50" relative="1" as="geometry">
            <mxPoint x="119" y="-654" as="sourcePoint" />
            <mxPoint x="10" y="-654" as="targetPoint" />
          </mxGeometry>
        </mxCell>
        <mxCell id="ewBVVVlj6XX4nbLFyOXV-4" value="" style="endArrow=none;html=1;rounded=0;exitX=0.5;exitY=1;exitDx=0;exitDy=0;entryX=0.75;entryY=0;entryDx=0;entryDy=0;" parent="1" source="ewBVVVlj6XX4nbLFyOXV-2" target="m8FWC069CCOMlwwMVzGk-7" edge="1">
          <mxGeometry width="50" height="50" relative="1" as="geometry">
            <mxPoint x="180" y="-654" as="sourcePoint" />
            <mxPoint x="230" y="-590" as="targetPoint" />
            <Array as="points">
              <mxPoint x="230" y="-600" />
              <mxPoint x="220" y="-600" />
            </Array>
          </mxGeometry>
        </mxCell>
        <mxCell id="3SzaWMMR1ydV6BAzwiTZ-1" value="N&lt;br&gt;" style="text;html=1;align=center;verticalAlign=middle;resizable=0;points=[];autosize=1;strokeColor=none;fillColor=none;" parent="1" vertex="1">
          <mxGeometry x="200" y="-624" width="30" height="30" as="geometry" />
        </mxCell>
        <mxCell id="3SzaWMMR1ydV6BAzwiTZ-2" value="N&lt;br&gt;" style="text;html=1;align=center;verticalAlign=middle;resizable=0;points=[];autosize=1;strokeColor=none;fillColor=none;" parent="1" vertex="1">
          <mxGeometry x="359" y="-664" width="30" height="30" as="geometry" />
        </mxCell>
        <mxCell id="JZQrbL0kekuzYIPqlFxs-4" value="N&lt;br&gt;" style="text;html=1;align=center;verticalAlign=middle;resizable=0;points=[];autosize=1;strokeColor=none;fillColor=none;" vertex="1" parent="1">
          <mxGeometry x="515" y="-613.9999999999999" width="30" height="30" as="geometry" />
        </mxCell>
      </root>
    </mxGraphModel>
  </diagram>
</mxfile>
